<svg xmlns="http://www.w3.org/2000/svg" viewBox="0 0 2048 2048" role="img" aria-labelledby="title desc">
  <title id="title">1OK shield logo preview</title>
  <desc id="desc">A black-background preview of the white 1OK shield logo.</desc>
  <rect width="2048" height="2048" fill="#030504"/>
  <g fill="#fff">
    <path d="M1024 205 847 352C670 475 486 550 307 596l119 823c35 110 106 213 211 310 102 94 234 176 387 247 153-71 285-153 387-247 105-97 176-200 211-310l119-823c-179-46-363-121-540-244L1024 205Zm0 59 143 119c176 122 358 201 546 249l-113 780c-32 101-98 197-199 290-96 89-222 168-377 240-155-72-281-151-377-240-101-93-167-189-199-290L335 632c188-48 370-127 546-249l143-119Z"/>
    <path d="M1043 372v420l-34 118-38-119V502l-89 35 161-165Zm-25 76-65 70 65-27v376l13-47V448Z"/>
    <path d="M1015 863 1208 1040 1023 1243 837 1040l178-177Zm8 51-128 133 131 143 126-143-129-133Z"/>
    <path d="m854 1040 160-177-62 204 72 176-102-143-68-60Zm336 0-166-177 66 204-67 176 99-143 68-60Z"/>
    <path d="M929 1309h86v487l-45-130v-309h-41l-35-34 35-14Zm176 0h120l-251 238v-93l131-145Zm-79 220 109 141 155 80-213-275-51 54Zm-12 55v207l-35-100v-74l35-33Z"/>
  </g>
</svg>
